<?xml version="1.0" encoding="UTF-8" standalone="no"?>
<!-- Created with Inkscape (http://www.inkscape.org/) -->

<svg
   width="210mm"
   height="297mm"
   viewBox="0 0 210 297"
   version="1.1"
   id="svg5010"
   xml:space="preserve"
   inkscape:version="1.2.2 (b0a8486, 2022-12-01)"
   sodipodi:docname="indigenous-area.svg"
   xmlns:inkscape="http://www.inkscape.org/namespaces/inkscape"
   xmlns:sodipodi="http://sodipodi.sourceforge.net/DTD/sodipodi-0.dtd"
   xmlns="http://www.w3.org/2000/svg"
   xmlns:svg="http://www.w3.org/2000/svg"><sodipodi:namedview
     id="namedview5012"
     pagecolor="#ffffff"
     bordercolor="#666666"
     borderopacity="1.0"
     inkscape:showpageshadow="2"
     inkscape:pageopacity="0.0"
     inkscape:pagecheckerboard="0"
     inkscape:deskcolor="#d1d1d1"
     inkscape:document-units="mm"
     showgrid="false"
     inkscape:zoom="1.829812"
     inkscape:cx="361.7858"
     inkscape:cy="611.26498"
     inkscape:window-width="2182"
     inkscape:window-height="1205"
     inkscape:window-x="94"
     inkscape:window-y="25"
     inkscape:window-maximized="0"
     inkscape:current-layer="layer1" /><defs
     id="defs5007" /><g
     inkscape:label="Layer 1"
     inkscape:groupmode="layer"
     id="layer1"><path
       style="fill:#0000ff;stroke:#000000;stroke-width:0.176652px;stroke-linecap:butt;stroke-linejoin:miter;stroke-opacity:1;opacity:0.46389497"
       d="m 39.869014,149.74871 c 0.185932,-0.0768 0.381738,-0.12555 0.569937,-0.19624 0.508483,-0.191 1.006534,-0.41198 1.519829,-0.58871 0.627216,-0.21596 1.272569,-0.37275 1.899785,-0.58872 0.659572,-0.22709 2.139936,-0.86763 2.469722,-0.98117 1.197016,-0.41215 2.396377,-0.81937 3.609594,-1.17742 0.12178,-0.036 0.259805,0.0414 0.379958,0 0.08496,-0.0293 0.126652,-0.13083 0.189978,-0.19624 0.126653,-0.0654 0.244328,-0.15421 0.379957,-0.19624 0.500179,-0.15499 1.010063,-0.27546 1.519829,-0.39247 0.06182,-0.0142 0.133339,0.0292 0.189979,0 0.0801,-0.0414 0.103096,-0.1738 0.189979,-0.19623 0.184306,-0.0476 0.383646,0.0385 0.569935,0 0.277704,-0.0573 0.487609,-0.31211 0.759916,-0.39248 0.310478,-0.0916 0.638368,-0.10848 0.949892,-0.19624 0.386397,-0.10885 0.756253,-0.2736 3.515678,-1.57112 2.759426,-1.29753 2.947778,-1.43158 3.133575,-1.56866 0.700892,-0.51713 1.43789,-0.98837 2.089764,-1.56989 2.399453,-2.14052 1.772087,-1.90153 3.609593,-4.31721 0.165992,-0.21822 0.413775,-0.36288 0.569935,-0.58871 0.16461,-0.23804 0.253306,-0.5233 0.379958,-0.78494 0.06333,-0.13083 0.137391,-0.25667 0.189979,-0.39248 0.328847,-0.8492 0.06277,-0.52215 0.569937,-1.56989 0.10211,-0.21095 0.270623,-0.38166 0.379956,-0.58871 1.941019,-3.67576 -0.34186,0.27457 1.51983,-2.74732 0.189978,-0.32706 0.379957,-0.65412 2.783563,-2.30434 2.403605,-1.65022 2.974588,-1.62039 3.10577,-1.62039 0.10214,0 1.401152,-0.0409 1.519833,0 0.08496,0.0293 0.109878,0.15487 0.189977,0.19624 0.05663,0.0292 0.126656,0 0.189978,0 0.126656,0 0.255769,-0.0257 0.379961,0 0.196363,0.0406 0.371691,0.16698 0.569933,0.19623 0.250763,0.037 0.50661,0 0.759916,0 0.506611,0.0654 1.019193,0.0928 1.519826,0.19624 0.452072,0.0934 0.882598,0.27698 1.329855,0.39248 0.122872,0.0317 0.266674,-0.0585 0.379955,0 0.0801,0.0414 0.115462,0.14492 0.189977,0.19623 0.117821,0.0811 0.279832,0.0928 0.379962,0.19624 0.100122,0.10342 0.111428,0.27077 0.189977,0.39247 0.09935,0.15394 0.280601,0.23853 0.379955,0.39247 0.07855,0.12171 0.111435,0.27078 0.761926,1.7351 0.650492,1.46432 0.682879,1.73507 0.7579,1.9934 0.115087,0.39625 0.274577,0.7783 0.379961,1.17742 0.08496,0.32179 0.111665,0.6576 0.189978,0.98118 0.04855,0.20068 0.150706,0.38588 0.189977,0.58871 0.02483,0.12829 -0.04007,0.26836 0,0.39247 0.02831,0.0878 0.161657,0.10849 0.189984,0.19625 0.06004,0.18616 0,0.39247 0,0.5887 v 1.5699 c 0,0.10953 -0.02897,0.89135 0.634266,2.6634 0.663229,1.77206 0.301813,0.65121 1.909148,3.324 1.607336,2.67279 1.826093,2.84325 2.016071,3.03948 0.316627,0.32706 0.63326,0.65412 0.949894,0.98118 0.360851,0.37274 0.754818,0.84598 2.406096,2.56476 1.651277,1.71878 -0.191003,-0.27669 1.773433,1.75245 0.0059,0.006 0.721545,0.70568 0.75991,0.78495 0.02831,0.0585 -0.0448,0.14998 0,0.19623 0.0448,0.0463 0.145201,-0.0463 0.189984,0 0.100129,0.10342 0.08985,0.28905 0.189977,0.39247 0.585403,0.6047 2.463228,1.83926 2.849678,2.15861 0.0495,0.0409 -0.0448,0.14998 0,0.19623 0.0448,0.0463 0.13334,-0.0292 0.18998,0 0.0801,0.0414 0.11899,0.13983 0.18998,0.19624 0.75291,0.59824 1.51982,1.17742 2.27974,1.76613 0.25331,0.19623 0.47671,0.44245 0.75992,0.58871 0.11328,0.0585 0.26667,-0.0585 0.37995,0 0.0566,0.0293 -0.0283,0.13773 0,0.19624 0.0401,0.0827 0.1403,0.11926 0.18998,0.19623 0.0786,0.1217 0.11143,0.27077 0.18998,0.39247 0.0994,0.15394 0.29986,0.227 0.37996,0.39248 0.0283,0.0585 -0.0448,0.14999 0,0.19624 0.0448,0.0463 0.15485,-0.0544 0.18998,0 0.11108,0.17211 0.10711,0.40039 0.18997,0.5887 0.70526,1.60268 0.84439,1.46828 1.32986,3.13979 0.0364,0.12531 0,0.26165 0,0.39248 v 0.98118 c 0,0.19624 -0.0313,0.39514 0,0.58871 0.0429,0.26603 0.16114,0.51689 0.18998,0.78495 0.11697,1.08752 -0.0197,0.79858 -0.18998,1.76612 -0.36498,2.07348 -0.0127,0.65425 -0.37996,2.55108 -0.13527,0.69863 -0.20705,0.94517 -0.56994,1.56989 -0.0461,0.0793 -0.12665,0.13083 -0.18998,0.19624 -0.12665,0.19624 -0.27784,0.37776 -0.37995,0.58871 -0.0896,0.18501 -0.0789,0.4166 -0.18998,0.58871 -0.14903,0.23091 -0.37996,0.39247 -0.56994,0.58871 -0.18998,0.26165 -0.40212,0.50759 -0.56993,0.78495 -0.1501,0.24806 -0.22287,0.54154 -0.37996,0.78494 -0.22492,0.3485 -0.50661,0.65412 -0.75991,0.98118 -0.50662,0.65413 -1.01323,1.30825 -1.51984,1.96237 -0.38894,0.5022 -1.32968,1.73027 -1.7098,2.1586 -0.363098,0.40915 -0.759916,0.78495 -1.139871,1.17742 -1.708431,1.76471 -1.501932,1.62973 -3.229636,3.13979 -0.309545,0.27055 -0.644737,0.50913 -0.949894,0.78494 -0.202196,0.18275 -0.363538,0.41105 -0.569939,0.58872 -0.175407,0.15098 -0.379955,0.26164 -0.569932,0.39247 -0.189984,0.13082 -0.374154,0.27113 -0.569939,0.39247 -2.609416,1.61723 -0.04743,0.0245 -2.659704,1.37366 -0.456651,0.23584 -0.855815,0.58909 -1.329848,0.78494 -0.484854,0.20034 -1.024423,0.2219 -1.519826,0.39248 -0.457532,0.15753 -0.878282,0.41379 -1.329849,0.58871 -0.562515,0.21789 -1.146086,0.37418 -1.70981,0.58871 -0.639994,0.24355 -1.242628,0.59639 -1.899787,0.78494 -0.491929,0.14115 -1.019194,0.0928 -1.519826,0.19624 -0.138855,0.0287 -0.24493,0.15219 -0.379962,0.19624 -1.070052,0.34904 -2.142845,0.69251 -3.229636,0.98118 -1.111905,0.29534 -4.973587,1.13466 -6.269294,1.37366 -2.70881,0.49965 -2.44082,0.38365 -5.319402,0.58871 -2.893482,0.20612 -3.243078,0.26942 -6.459273,0.39247 -0.442979,0.017 -0.886566,0 -1.329851,0 h -5.699358 -1.709806 c -0.50661,0 -1.014094,0.0307 -1.51983,0 -0.572453,-0.0348 -1.14271,-0.10837 -1.709808,-0.19624 -0.700175,-0.10849 -1.391389,-0.27224 -2.089764,-0.39247 -0.06247,-0.0107 -0.133339,0.0292 -0.189979,0 -0.0801,-0.0414 -0.109877,-0.15487 -0.189979,-0.19624 -0.179114,-0.0925 -0.379958,-0.13082 -0.569935,-0.19623 -0.443285,-0.19624 -0.898488,-0.36593 -1.329851,-0.58871 -0.204221,-0.10548 -0.376316,-0.26748 -0.569936,-0.39248 -0.313126,-0.20214 -0.64942,-0.36702 -0.949893,-0.58871 -0.14575,-0.10753 -0.240093,-0.27689 -0.379958,-0.39247 -0.125953,-0.10408 -0.827536,-0.53217 -0.674846,-1.5428 0.15269,-1.01062 0.269267,-1.39621 0.29489,-1.79322 0.05897,-0.91374 0,-1.83154 0,-2.74731 0,-0.13083 -0.02083,-0.26344 0,-0.39248 0.164629,-1.02031 0.313845,-0.6146 0.189978,-1.76612 -0.02883,-0.26806 -0.118249,-0.52563 -0.189978,-0.78495 -0.322205,-1.16487 -0.751929,-2.00557 -1.32985,-3.13979 -7.23e-4,-10e-4 -1.568765,-2.93339 -1.709808,-3.13979 -0.467674,-0.68436 -1.029124,-1.29543 -1.51983,-1.96236 -3.626012,-4.92823 -0.970352,-1.21124 -2.849678,-4.31721 -0.04746,-0.0784 -0.126654,-0.13082 -0.189979,-0.19623 -0.253306,-0.26165 -0.536132,-0.49601 -0.759916,-0.78495 -0.285268,-0.36833 -0.474645,-0.80909 -0.759913,-1.17742 -0.223783,-0.28894 -0.520274,-0.50991 -0.759914,-0.78495 -0.330866,-0.37973 -0.633263,-0.78494 -0.949895,-1.17742 -0.316631,-0.39247 -0.666262,-0.75888 -0.949892,-1.17742 -0.162407,-0.23965 -0.234251,-0.5341 -0.596833,-1.41262 -0.362583,-0.87853 -0.456267,-2.03612 -0.543039,-2.70835 -0.05918,-0.45847 -0.149439,-0.91301 -0.189979,-1.37365 -0.0344,-0.39086 0,-0.78494 0,-1.17742 0,-0.19624 -0.03725,-0.39629 0.64855,-1.70061 0.685804,-1.30433 1.007251,-1.82069 1.441214,-2.22413 0.210505,-0.19569 0.511292,-0.25238 0.759916,-0.39247 0.863773,-0.48667 1.483908,-1.01318 2.469722,-1.17742 1.574169,-0.26226 3.168063,-0.37793 4.483259,-0.99094 1.315195,-0.61301 1.776888,-1.12463 2.355971,-1.36389 z"
       id="path5167"
       sodipodi:nodetypes="ssssscccssccssscssssssscccsssssscssssssscsscsccssccsscssscssscsssscssssssssscscsscsscsssssssssssssssssssssssscsssccscsssscsscsscssssssssscssscssscs" /><path
       style="fill:#008000;stroke:#000000;stroke-width:0.14631px;stroke-linecap:butt;stroke-linejoin:miter;stroke-opacity:1;fill-opacity:1;opacity:0.33479212"
       d="m 27.74577,152.80537 c 0.09166,-0.0538 0.133864,-0.17242 0.224688,-0.22764 0.101544,-0.0617 0.231113,-0.0602 0.337031,-0.11382 0.527516,-0.26721 0.141341,-0.17109 0.561719,-0.34145 0.29707,-0.12039 0.601678,-0.22107 0.89875,-0.34146 0.07775,-0.0315 0.155014,-0.0668 0.224686,-0.11382 0.04407,-0.0298 0.0749,-0.0759 0.112344,-0.11381 0.149792,-0.0759 0.303968,-0.14346 0.449375,-0.22764 0.179467,-0.1039 0.357192,-0.27239 0.561719,-0.34146 0.03553,-0.012 0.07885,0.017 0.112342,0 0.120767,-0.0612 0.216266,-0.16646 0.337033,-0.22764 0.105918,-0.0537 0.231111,-0.0602 0.337031,-0.11382 0.120765,-0.0612 0.216264,-0.16646 0.337031,-0.22764 0.211836,-0.10731 0.454161,-0.13852 0.674062,-0.22764 0.155494,-0.063 0.305769,-0.14034 0.449374,-0.22763 0.11578,-0.0704 0.214678,-0.16979 0.337032,-0.22764 0.44115,-0.20857 0.900663,-0.37481 1.348124,-0.5691 0.07697,-0.0334 0.14694,-0.0823 0.224688,-0.11382 0.109951,-0.0446 0.228186,-0.0666 0.337031,-0.11382 0.153932,-0.0668 0.290496,-0.17398 0.449374,-0.22763 0.181149,-0.0612 0.38293,-0.0459 0.561719,-0.11382 0.126424,-0.048 0.219003,-0.16121 0.337031,-0.22764 0.219596,-0.1236 0.455953,-0.21519 0.674063,-0.34146 0.04598,-0.0266 0.06998,-0.0816 0.112344,-0.11382 0.108015,-0.0821 0.229015,-0.14556 0.337031,-0.22764 0.08474,-0.0644 0.144268,-0.1578 0.224687,-0.22764 0.928801,-0.80656 0.395172,-0.28654 1.011093,-0.91055 0.149792,-0.15175 0.322273,-0.28358 0.449376,-0.45528 0.02247,-0.0303 -0.01675,-0.0799 0,-0.11381 0.06741,-0.13658 0.269624,-0.20488 0.337031,-0.34146 0.01674,-0.034 0,-0.0759 0,-0.11382 0.03745,-0.038 0.08866,-0.0658 0.112343,-0.11382 0.01675,-0.034 -0.02648,-0.087 0,-0.11382 0.02648,-0.0268 0.08586,0.0268 0.112343,0 0.0749,-0.11381 0.149792,-0.22763 0.224688,-0.34145 0,-0.038 -0.01675,-0.0799 0,-0.11382 0.04737,-0.096 0.165934,-0.13836 0.224688,-0.22764 0.247512,-0.0573 0.05938,-0.23415 0.112343,-0.34146 0.02368,-0.048 0.0749,-0.0759 0.112345,-0.11382 0.07489,-0.0759 0.161135,-0.14179 0.224686,-0.22764 0.100483,-0.13574 0.138523,-0.30978 0.224688,-0.45528 0.549847,-0.92844 -0.07977,0.14571 0.449376,-0.56909 0.100481,-0.13574 0.124203,-0.31954 0.224686,-0.45527 0.06355,-0.0859 0.149792,-0.15177 0.224687,-0.22764 0.149793,-0.15176 0.307663,-0.29575 0.449375,-0.45528 0.195658,-0.22025 0.366062,-0.46266 0.561718,-0.68291 0.141713,-0.15953 0.299584,-0.30352 0.449376,-0.45528 0.03745,-0.0379 0.08297,-0.0692 0.112343,-0.11382 0.04645,-0.0706 0.0749,-0.15176 0.112345,-0.22764 0.112343,-0.11382 0.235319,-0.2178 0.337031,-0.34146 0.819189,-0.99593 0.760499,-1.11194 1.685155,-2.04874 1.205245,-1.22107 0.360156,-0.24814 1.235781,-1.02437 0.159424,-0.14133 0.281467,-0.32442 0.449375,-0.45528 0.32106,-0.25021 0.681481,-0.44439 1.011093,-0.68291 0.19512,-0.14121 0.362207,-0.32053 0.561718,-0.45528 0.03116,-0.0211 0.07885,0.017 0.112344,0 0.09474,-0.048 0.136558,-0.16811 0.224688,-0.22764 0.06967,-0.0471 0.152883,-0.0702 0.224687,-0.11382 0.115778,-0.0704 0.219002,-0.1612 0.337032,-0.22764 0.820125,-0.4616 0.678556,-0.31869 1.685155,-0.68291 0.37983,-0.13743 0.745791,-0.3118 1.123437,-0.45528 0.110881,-0.0421 0.22615,-0.0717 0.337031,-0.11382 0.188824,-0.0717 0.36856,-0.16893 0.561718,-0.22764 0.182895,-0.0556 0.378825,-0.0582 0.561719,-0.11381 0.296777,-0.12027 0.590548,-0.25225 0.89875,-0.34146 0.148461,-0.043 0.301485,-0.0689 0.449374,-0.11382 0.226854,-0.069 0.444293,-0.16944 0.674064,-0.22764 0.220985,-0.056 0.44995,-0.0725 0.674062,-0.11382 0.187867,-0.0346 0.374478,-0.0759 0.561718,-0.11382 0.18724,-0.0379 0.372246,-0.0898 0.561718,-0.11382 0.111476,-0.0141 0.224687,0 0.337032,0 0.03745,0 0.07885,0.017 0.112343,0 0.04737,-0.024 0.0621,-0.0969 0.112344,-0.11382 0.07105,-0.024 0.151246,0.0149 0.224687,0 0.116121,-0.0235 0.223167,-0.0808 0.337031,-0.11381 0.148461,-0.043 0.297972,-0.0832 0.449376,-0.11382 0.223362,-0.0453 0.452108,-0.0619 0.674062,-0.11382 0.265642,-0.0621 0.515885,-0.19338 0.786405,-0.22764 0.456508,-0.0578 1.30929,0.045 1.797499,0 0.153768,-0.0142 0.295428,-0.10182 0.449376,-0.11382 0.336041,-0.0262 0.674061,0 1.011093,0 h 1.460467 0.449376 c 0.0749,0 0.150372,0.009 0.224688,0 0.226028,-0.0286 0.446667,-0.10027 0.674064,-0.11382 0.411215,-0.0245 0.823854,0 1.235778,0 h 0.898752 c 0.14979,0 0.300195,-0.0137 0.449376,0 0.263705,0.0243 0.522279,0.0947 0.786402,0.11382 0.26147,0.0189 0.524939,-0.0189 0.786408,0 0.264123,0.0191 0.524851,0.072 0.786408,0.11382 1.335618,0.21366 1.568739,0.22626 2.920933,0.68291 0.270561,0.0914 0.515846,0.25009 0.786408,0.34146 0.181149,0.0612 0.380565,0.0526 0.56172,0.11382 0.361518,0.12209 0.478224,0.26794 0.786402,0.45528 0.143609,0.0873 0.305772,0.14034 0.449376,0.22763 0.115778,0.0704 0.219804,0.15978 0.337032,0.22764 0.145406,0.0842 0.315397,0.12584 0.449376,0.22764 0.02994,0.0228 -0.01676,0.0799 0,0.11382 0.04736,0.096 0.165931,0.13835 0.224688,0.22764 0.04642,0.0706 0.06589,0.15705 0.112338,0.22764 0.02939,0.0446 0.0749,0.0759 0.11235,0.11382 0.07489,0.0759 0.14979,0.15176 0.224682,0.22764 0.149796,0.15175 0.289955,0.31394 0.449376,0.45527 0.843385,0.74765 0.08735,0.003 0.786408,0.5691 0.08271,0.067 0.139951,0.16325 0.224688,0.22764 0.06699,0.0509 0.157696,0.0629 0.224688,0.11381 0.293433,0.22297 0.327857,0.52032 0.561714,0.79674 0.547508,0.64714 0.330176,0.21606 0.674064,0.79673 0.08617,0.14549 0.138523,0.30979 0.224688,0.45528 0.363452,0.61371 0.165377,0.10655 0.56172,1.02437 0.439377,1.01749 0.419962,1.19242 0.898747,2.16256 0.06038,0.12235 0.155223,0.22416 0.224688,0.34146 0.04307,0.0727 0.06589,0.15705 0.112344,0.22764 0.02939,0.0446 0.08297,0.0692 0.112344,0.11382 0.263667,0.40069 -0.08074,0.0753 0.337032,0.5691 0.137863,0.16295 0.309881,0.29375 0.449376,0.45527 0.246597,0.28553 0.434328,0.61909 0.674058,0.91055 0.135616,0.16488 0.299586,0.30352 0.449376,0.45528 0.448854,0.45475 0.05186,0.0823 0.898752,0.68292 0.153388,0.10878 0.290592,0.24091 0.449376,0.34145 0.142011,0.0899 0.303964,0.14346 0.44937,0.22764 0.117234,0.0679 0.219008,0.16121 0.337032,0.22764 0.219595,0.1236 0.449376,0.22764 0.674064,0.34145 0.29958,0.15176 0.590887,0.32161 0.898752,0.45528 0.108844,0.0473 0.23111,0.0602 0.337027,0.11382 0.270039,0.1368 0.521356,0.3088 0.786407,0.45528 0.147022,0.0813 0.302976,0.14524 0.449376,0.22764 0.190879,0.10743 0.374478,0.22764 0.56172,0.34145 0.187237,0.11383 0.382835,0.2146 0.561715,0.34146 0.196438,0.13932 0.37751,0.29976 0.56172,0.45528 0.04065,0.0343 0.06828,0.084 0.112344,0.11382 0.181682,0.12271 0.380032,0.21874 0.56172,0.34145 0.155789,0.10523 0.29958,0.22764 0.449376,0.34146 0.224688,0.15176 0.447645,0.30618 0.674058,0.45528 0.522565,0.34412 1.042878,0.69201 1.57281,1.02437 2.045003,1.28258 0.16364,-0.0326 1.011096,0.68292 0.333862,0.28187 0.447256,0.22119 0.915854,2.19444 0.468599,1.97326 0.432269,1.37285 0.376099,2.41571 -0.05617,1.04286 -0.02725,1.6885 -0.05617,2.33281 -0.0087,0.19325 -0.0977,0.37621 -0.112344,0.5691 0,3.00776 0.05875,-0.60048 -0.112344,1.47965 -0.101576,1.23487 0.149499,0.38087 -0.112344,1.70728 -0.05346,0.27084 -0.175919,0.52499 -0.224688,0.79674 -0.02681,0.14931 0,0.30351 0,0.45527 -0.03747,0.26558 -0.06042,0.53367 -0.112344,0.79674 -0.02324,0.11764 -0.08665,0.22433 -0.112344,0.34145 -0.506858,2.31082 0.154663,-0.32079 -0.224688,1.02438 -0.11642,0.41282 -0.179473,0.85294 -0.337032,1.25201 -0.124392,0.31507 -0.307733,0.60304 -0.449376,0.91055 -0.278138,0.60384 -0.348519,0.91425 -0.674058,1.47965 -0.136067,0.23631 -0.31331,0.44659 -0.449376,0.68291 -0.126579,0.21984 -0.207789,0.46468 -0.842616,1.54753 -0.634821,1.08286 -0.792857,1.30672 -0.954882,1.52559 -0.555254,0.75006 -0.912663,1.14277 -1.460472,1.8211 -0.42261,0.52332 -0.808521,1.07403 -1.235779,1.59347 -0.221023,0.26871 -0.429933,0.5494 -0.674064,0.79673 -0.24413,0.24734 -0.530937,0.44763 -0.786402,0.68292 -0.313496,0.28874 -0.599172,0.60704 -2.654497,2.62369 -2.055325,2.01665 -2.184903,2.06914 -2.288627,2.15671 -0.122058,0.10305 -0.224688,0.22764 -0.337032,0.34146 l -1.700071,1.59829 c -1.250688,1.14301 -1.408104,1.24719 -1.5579,1.36101 -0.14979,0.11382 -0.290592,0.24091 -1.674364,1.25039 -1.383766,1.00947 -1.553928,1.04988 -2.771049,1.73234 -1.217121,0.68246 -1.458637,0.87436 -1.733489,1.00094 -0.140561,0.0647 -0.304805,0.0589 -1.600296,0.64346 -1.295492,0.58458 -1.462368,0.73725 -1.657674,0.83619 -0.03351,0.017 -0.07885,-0.017 -0.112339,0 -0.120766,0.0612 -0.216266,0.16646 -0.337032,0.22763 -0.223358,0.11315 -1.02605,0.40216 -1.235784,0.45528 -0.370489,0.0938 -0.754999,0.12584 -2.286968,0.5864 -1.531964,0.46057 -2.012166,0.43797 -2.094436,0.43797 h -1.011091 -1.123437 l -1.777297,-0.32603 c -1.215578,-0.32604 -1.405775,-0.39482 -1.593016,-0.4707 -0.581107,-0.2355 -0.723418,-0.28781 -1.348124,-0.5691 -0.413485,-0.18618 -0.835881,-0.3546 -1.23578,-0.56909 -0.238659,-0.12801 -0.436996,-0.32427 -0.674062,-0.45528 -0.412382,-0.22788 -0.522664,-0.18904 -2.144941,-1.0412 -1.622277,-0.85215 -2.290213,-1.04641 -3.687816,-1.78312 -1.397603,-0.73672 -1.644833,-0.91735 -2.925186,-1.29947 -1.280353,-0.38212 -1.988927,-0.58337 -2.701116,-0.77043 -1.269584,-0.33347 -0.497601,-0.0922 -1.572812,-0.45528 -0.224688,-0.0759 -0.45544,-0.13534 -0.674062,-0.22763 -0.340448,-0.14372 -0.67476,-0.30194 -1.011094,-0.45528 -0.707201,-0.32242 -1.251484,-0.5595 -1.909843,-0.91056 -0.489281,-0.26089 -0.965929,-0.54621 -1.460469,-0.79673 -0.04763,-0.0241 -0.627091,-0.23385 -0.786405,-0.34146 -0.155793,-0.10522 -0.285699,-0.24933 -0.449375,-0.34145 -0.176285,-0.0992 -0.381345,-0.13627 -0.561719,-0.22764 -0.120765,-0.0612 -0.220403,-0.15871 -0.337031,-0.22764 -0.333029,-0.19682 -0.678774,-0.37105 -1.011093,-0.56909 -0.304507,-0.18148 -0.589925,-0.39528 -1.097037,-0.67707 -0.507111,-0.28178 -0.771098,-0.431 -1.037493,-0.57495 -0.295539,-0.15969 -0.608881,-0.28525 -0.89875,-0.45527 -0.422554,-0.24785 -0.810719,-0.55333 -1.235781,-0.79673 -0.437385,-0.25047 -0.904094,-0.44476 -1.818895,-1.05706 -0.914802,-0.61229 -1.289281,-0.91581 -1.663761,-1.21933 -0.112343,-0.11382 -0.217461,-0.23546 -0.33703,-0.34146 -0.180456,-0.15997 -0.392166,-0.28349 -1.094833,-1.03333 -0.702667,-0.74983 -0.831881,-0.80486 -0.927354,-0.90159 -0.264796,-0.26828 -0.430355,-0.6225 -0.674061,-0.91055 -0.800597,-0.81111 0.06392,0.1094 -0.561719,-0.68292 -0.06617,-0.0838 -0.159056,-0.14341 -0.224688,-0.22764 -0.496595,-0.63728 -0.970442,-1.29244 -1.460468,-1.93492 -0.813863,-1.06707 -0.09069,-0.0448 -1.011094,-1.36583 -0.263607,-0.37835 -0.526214,-0.75742 -1.199304,-2.59819 -0.673091,-1.84076 -0.743711,-2.29677 -0.822882,-2.75131 -0.03318,-0.19051 -0.08866,-0.37713 -0.112344,-0.56909 -0.01858,-0.15059 0,-0.30352 0,-0.45528 v -0.79674 c 0,-0.15253 -0.02113,-0.6897 0.128259,-1.33588 0.149389,-0.64619 0.24622,-0.78874 0.321116,-0.9405 0.112344,-0.22764 0.207785,-0.46467 0.337031,-0.68291 0.06947,-0.1173 0.174542,-0.21445 1.560979,-1.82793 1.386438,-1.61348 1.359957,-1.66253 2.116147,-2.31853 0.756189,-0.656 2.174111,-1.21452 3.512872,-1.99978 z"
       id="path5280"
       sodipodi:nodetypes="sssssscsccssssssccsscsssscsssscssccscssssssssssscsssssssssssssscssssssssssssssssscssssssssssssssssccssssssssssssssssssssssssssssssssscsssccscssscssssssscssssscsscsccscscsscscccsssscccssssscssssscsssccscscscsscsssscssccs" /><text
       xml:space="preserve"
       style="font-size:2.82223px;line-height:0.95;font-family:sans-serif;stroke-width:0.264583"
       x="43.029736"
       y="125.07546"
       id="text5647"><tspan
         sodipodi:role="line"
         id="tspan5645"
         style="stroke-width:0.264583"
         x="43.029736"
         y="125.07546">A</tspan></text><text
       xml:space="preserve"
       style="font-size:2.82223px;line-height:0.95;font-family:sans-serif;stroke-width:0.264583"
       x="42.944984"
       y="131.87146"
       id="text5651"><tspan
         sodipodi:role="line"
         id="tspan5649"
         style="stroke-width:0.264583"
         x="42.944984"
         y="131.87146">B</tspan></text><path
       style="fill:none;stroke:#000000;stroke-width:0.264583px;stroke-linecap:butt;stroke-linejoin:miter;stroke-opacity:1"
       d="m 45.692308,124.35248 31.521908,3.4703"
       id="path5655" /><path
       style="fill:none;stroke:#000000;stroke-width:0.264583px;stroke-linecap:butt;stroke-linejoin:miter;stroke-opacity:1"
       d="m 45.547711,130.7147 14.45959,3.6149"
       id="path5657" /></g></svg>
